<svg width="32" height="32" viewBox="0 0 32 32" fill="none" xmlns="http://www.w3.org/2000/svg">
<path d="M31.3307 4.99777C31.1499 4.03128 30.7934 3.14917 30.2968 2.43977C29.8003 1.73037 29.1811 1.21858 28.5013 0.955658C26.0067 -2.53787e-07 16 0 16 0C16 0 5.99333 -2.53787e-07 3.49733 0.955658C2.81788 1.21905 2.19906 1.73103 1.70277 2.44037C1.20648 3.14972 0.850122 4.03159 0.669333 4.99777C0 8.563 0 16 0 16C0 16 0 23.4371 0.669333 27.0023C0.850115 27.9688 1.20663 28.8509 1.70319 29.5603C2.19974 30.2696 2.8189 30.7814 3.49867 31.0444C5.99333 32 16 32 16 32C16 32 26.0067 32 28.5027 31.0444C29.1825 30.7817 29.8017 30.2699 30.2983 29.5605C30.7949 28.851 31.1513 27.9688 31.332 27.0023C32 23.4371 32 16 32 16C32 16 32 8.563 31.3307 4.99777ZM12.7267 22.752V9.24809L21.0907 16L12.7267 22.752Z" fill="white"/>
</svg>
