<svg width="32" height="32" viewBox="0 0 32 32" fill="none" xmlns="http://www.w3.org/2000/svg">
<path d="M22.6667 22.6532C20.8667 22.6532 19.7333 23.2132 18.7333 23.7199C17.8667 24.1599 17.16 24.5199 16 24.5199C14.8 24.5199 14.1333 24.1865 13.2667 23.7199C12.2667 23.2132 11.1733 22.6532 9.33332 22.6532C7.49332 22.6532 6.39999 23.2132 5.39999 23.7199C4.82666 24.0132 4.31999 24.2665 3.70666 24.4132C3.10666 24.5465 2.66666 25.0265 2.66666 25.6265V25.7599C2.66666 26.5599 3.41332 27.1332 4.18666 26.9732C5.17332 26.7732 5.91999 26.3999 6.59999 26.0532C7.46666 25.6132 8.15999 25.2532 9.33332 25.2532C10.5067 25.2532 11.2 25.5865 12.0667 26.0532C13.0667 26.5599 14.16 27.1199 16 27.1199C17.84 27.1199 18.9333 26.5599 19.9333 26.0532C20.8 25.6132 21.5067 25.2532 22.6667 25.2532C23.8667 25.2532 24.5333 25.5865 25.4 26.0532C26.0933 26.3999 26.84 26.7865 27.84 26.9865C28.0201 27.0217 28.2058 27.0169 28.3838 26.9724C28.5619 26.9279 28.728 26.8449 28.8704 26.7292C29.0129 26.6134 29.1282 26.4678 29.2082 26.3026C29.2881 26.1375 29.3309 25.9567 29.3333 25.7732V25.6532C29.3333 25.0399 28.88 24.5599 28.28 24.4265C27.6667 24.2932 27.1733 24.0399 26.6 23.7332C25.6 23.2132 24.4667 22.6532 22.6667 22.6532V22.6532ZM22.6667 16.7199C20.8667 16.7199 19.7333 17.2932 18.7333 17.7865C17.8667 18.2132 17.16 18.5865 16 18.5865C14.8 18.5865 14.1333 18.2532 13.2667 17.7865C12.2667 17.2799 11.1733 16.7199 9.33332 16.7199C7.49332 16.7199 6.39999 17.2932 5.39999 17.7865C4.82666 18.0665 4.31999 18.3332 3.69332 18.4799C3.10666 18.6132 2.66666 19.0932 2.66666 19.6932V19.8265C2.66673 20.0108 2.70789 20.1928 2.78712 20.3592C2.86636 20.5256 2.98169 20.6722 3.12472 20.7884C3.26775 20.9046 3.43489 20.9875 3.61397 21.031C3.79306 21.0745 3.97959 21.0775 4.15999 21.0399C5.15999 20.8399 5.90666 20.4532 6.59999 20.1199C7.46666 19.6532 8.13332 19.3199 9.33332 19.3199C10.5333 19.3199 11.2 19.6532 12.0667 20.1199C13.0667 20.6265 14.16 21.1865 16 21.1865C17.84 21.1865 18.9333 20.6132 19.9333 20.1199C20.8 19.6532 21.4667 19.3199 22.6667 19.3199C23.8667 19.3199 24.5333 19.6532 25.4 20.1199C26.0933 20.4665 26.84 20.8532 27.84 21.0532C28.0212 21.0886 28.208 21.0835 28.387 21.0382C28.566 20.993 28.7329 20.9088 28.8755 20.7916C29.0182 20.6744 29.1332 20.5271 29.2124 20.3603C29.2915 20.1934 29.3328 20.0112 29.3333 19.8265V19.7065C29.3333 19.0932 28.88 18.6132 28.28 18.4799C27.6667 18.3465 27.1733 18.0932 26.6 17.7865C25.6 17.2799 24.4667 16.7199 22.6667 16.7199V16.7199ZM26.6 5.94655C25.6 5.43988 24.4933 4.87988 22.6667 4.87988C20.84 4.87988 19.7333 5.43988 18.7333 5.94655C17.8667 6.37322 17.16 6.74655 16 6.74655C14.8 6.74655 14.1333 6.41322 13.2667 5.94655C12.2667 5.45322 11.1733 4.87988 9.33332 4.87988C7.49332 4.87988 6.39999 5.43988 5.39999 5.94655C4.82666 6.23988 4.31999 6.49322 3.70666 6.63988C3.10666 6.77322 2.66666 7.25322 2.66666 7.85322V7.94655C2.66666 8.74655 3.38666 9.33322 4.15999 9.17322C5.15999 8.97322 5.90666 8.58655 6.59999 8.25322C7.46666 7.81322 8.15999 7.45322 9.33332 7.45322C10.5067 7.45322 11.2 7.78655 12.0667 8.25322C13.0667 8.75988 14.16 9.31988 16 9.31988C17.84 9.31988 18.9333 8.74655 19.9333 8.25322C20.8 7.82655 21.5067 7.45322 22.6667 7.45322C23.8667 7.45322 24.5333 7.78655 25.4 8.25322C26.0933 8.59988 26.84 8.98655 27.84 9.18655C28.0212 9.22191 28.208 9.21679 28.387 9.17155C28.566 9.12632 28.7329 9.04209 28.8755 8.92489C29.0182 8.80769 29.1332 8.66042 29.2124 8.49359C29.2915 8.32677 29.3328 8.14452 29.3333 7.95988V7.83988C29.3333 7.22655 28.88 6.74655 28.28 6.61322C27.6667 6.47988 27.1733 6.23988 26.6 5.94655V5.94655ZM22.6667 10.7865C20.8667 10.7865 19.7333 11.3599 18.7333 11.8532C17.8667 12.3199 17.2 12.6532 16 12.6532C14.8 12.6532 14.1333 12.3199 13.2667 11.8532C12.2667 11.3465 11.1733 10.7865 9.33332 10.7865C7.49332 10.7865 6.39999 11.3599 5.39999 11.8532C4.82666 12.1599 4.33332 12.4132 3.71999 12.5465C3.11999 12.6799 2.66666 13.1599 2.66666 13.7732V13.8932C2.66673 14.0775 2.70789 14.2595 2.78712 14.4259C2.86636 14.5922 2.98169 14.7389 3.12472 14.8551C3.26775 14.9713 3.43489 15.0542 3.61397 15.0977C3.79306 15.1412 3.97959 15.1442 4.15999 15.1065C5.15999 14.9065 5.90666 14.5199 6.59999 14.1865C7.46666 13.7599 8.17332 13.3865 9.33332 13.3865C10.4933 13.3865 11.2 13.7199 12.0667 14.1865C13.0667 14.6932 14.16 15.2532 16 15.2532C17.84 15.2532 18.9333 14.6799 19.9333 14.1865C20.8 13.7599 21.5067 13.3865 22.6667 13.3865C23.8667 13.3865 24.5333 13.7199 25.4 14.1865C26.0933 14.5332 26.84 14.9199 27.84 15.1199C28.0201 15.155 28.2058 15.1502 28.3838 15.1057C28.5619 15.0613 28.728 14.9782 28.8704 14.8625C29.0129 14.7468 29.1282 14.6012 29.2082 14.436C29.2881 14.2708 29.3309 14.0901 29.3333 13.9065V13.7865C29.3333 13.1732 28.88 12.6932 28.28 12.5599C27.6667 12.4265 27.1733 12.1732 26.6 11.8665C25.6 11.3465 24.4667 10.7865 22.6667 10.7865V10.7865Z" fill="url(#paint0_linear_7_106)"/>
<defs>
<linearGradient id="paint0_linear_7_106" x1="16" y1="4.87988" x2="16" y2="27.1199" gradientUnits="userSpaceOnUse">
<stop stop-color="#FFBF00"/>
<stop offset="1" stop-color="#F29E0C"/>
</linearGradient>
</defs>
</svg>
