<svg width="16" height="16" viewBox="0 0 16 16" fill="none" xmlns="http://www.w3.org/2000/svg">
<path d="M12.667 4.66698C12.667 3.93398 12.067 3.33398 11.334 3.33398H10.001C9.634 3.33398 9.334 3.63398 9.334 3.99998C9.334 4.36698 9.634 4.66698 10.001 4.66698H11.334V6.43398L9.014 9.33398H6.667V6.66698C6.667 6.29998 6.367 5.99998 6.001 5.99998H4C3.64973 5.99985 3.30286 6.06875 2.97923 6.20273C2.65559 6.33671 2.36153 6.53316 2.11385 6.78084C1.86617 7.02852 1.66973 7.32258 1.53575 7.64621C1.40176 7.96985 1.33287 8.31671 1.333 8.66698V9.99998C1.333 10.367 1.633 10.667 2 10.667H2.666C2.666 11.774 3.56 12.667 4.666 12.667C5.773 12.667 6.666 11.774 6.666 10.667H9.013C9.42 10.667 9.8 10.48 10.053 10.167L12.373 7.26698C12.566 7.02698 12.666 6.73298 12.666 6.43398V4.66698H12.667ZM4.667 11.334C4.49044 11.3332 4.32135 11.2626 4.19659 11.1377C4.07183 11.0127 4.00153 10.8435 4.001 10.667H5.334C5.334 11.034 5.034 11.334 4.667 11.334Z" fill="#858585"/>
<path d="M4 4H6C6.367 4 6.667 4.3 6.667 4.667C6.667 5.033 6.367 5.333 6.001 5.333H4C3.82344 5.33247 3.65424 5.26217 3.52929 5.13741C3.40435 5.01266 3.33379 4.84356 3.333 4.667C3.333 4.3 3.633 4 4 4ZM12.668 8.666C11.561 8.666 10.668 9.56 10.668 10.666C10.668 11.773 11.561 12.666 12.668 12.666C13.775 12.666 14.668 11.773 14.668 10.666C14.668 9.56 13.775 8.666 12.668 8.666ZM12.668 11.333C12.4913 11.3325 12.3219 11.262 12.1969 11.1371C12.072 11.0121 12.0015 10.8427 12.001 10.666C12.001 10.3 12.301 10 12.668 10C13.035 10 13.335 10.3 13.335 10.666C13.335 11.033 13.035 11.333 12.668 11.333Z" fill="#858585"/>
</svg>
