<svg width="32" height="32" viewBox="0 0 32 32" fill="none" xmlns="http://www.w3.org/2000/svg">
<path d="M16 10.6666C13.0533 10.6666 10.6667 13.0533 10.6667 15.9999C10.6667 18.9466 13.0533 21.3333 16 21.3333C18.9467 21.3333 21.3333 18.9466 21.3333 15.9999C21.3333 13.0533 18.9467 10.6666 16 10.6666ZM27.92 14.6666C27.618 11.9627 26.4055 9.44197 24.4818 7.51818C22.558 5.59439 20.0372 4.38193 17.3333 4.07992V2.66659C17.3333 1.93325 16.7333 1.33325 16 1.33325C15.2667 1.33325 14.6667 1.93325 14.6667 2.66659V4.07992C11.9628 4.38193 9.44206 5.59439 7.51827 7.51818C5.59448 9.44197 4.38203 11.9627 4.08001 14.6666H2.66668C1.93334 14.6666 1.33334 15.2666 1.33334 15.9999C1.33334 16.7333 1.93334 17.3333 2.66668 17.3333H4.08001C4.38203 20.0371 5.59448 22.5579 7.51827 24.4817C9.44206 26.4055 11.9628 27.6179 14.6667 27.9199V29.3333C14.6667 30.0666 15.2667 30.6666 16 30.6666C16.7333 30.6666 17.3333 30.0666 17.3333 29.3333V27.9199C20.0372 27.6179 22.558 26.4055 24.4818 24.4817C26.4055 22.5579 27.618 20.0371 27.92 17.3333H29.3333C30.0667 17.3333 30.6667 16.7333 30.6667 15.9999C30.6667 15.2666 30.0667 14.6666 29.3333 14.6666H27.92V14.6666ZM16 25.3333C10.84 25.3333 6.66668 21.1599 6.66668 15.9999C6.66668 10.8399 10.84 6.66659 16 6.66659C21.16 6.66659 25.3333 10.8399 25.3333 15.9999C25.3333 21.1599 21.16 25.3333 16 25.3333Z" fill="url(#paint0_linear_7_104)"/>
<defs>
<linearGradient id="paint0_linear_7_104" x1="16" y1="1.33325" x2="16" y2="30.6666" gradientUnits="userSpaceOnUse">
<stop stop-color="#FFBF00"/>
<stop offset="1" stop-color="#F29E0C"/>
</linearGradient>
</defs>
</svg>
