<svg width="32" height="32" viewBox="0 0 32 32" fill="none" xmlns="http://www.w3.org/2000/svg">
<path d="M24 10.6666H22.6667V7.99992C22.6667 4.31992 19.68 1.33325 16 1.33325C12.32 1.33325 9.33334 4.31992 9.33334 7.99992V10.6666H8.00001C6.53334 10.6666 5.33334 11.8666 5.33334 13.3333V26.6666C5.33334 28.1333 6.53334 29.3333 8.00001 29.3333H24C25.4667 29.3333 26.6667 28.1333 26.6667 26.6666V13.3333C26.6667 11.8666 25.4667 10.6666 24 10.6666ZM16 22.6666C14.5333 22.6666 13.3333 21.4666 13.3333 19.9999C13.3333 18.5333 14.5333 17.3333 16 17.3333C17.4667 17.3333 18.6667 18.5333 18.6667 19.9999C18.6667 21.4666 17.4667 22.6666 16 22.6666ZM12 10.6666V7.99992C12 5.78659 13.7867 3.99992 16 3.99992C18.2133 3.99992 20 5.78659 20 7.99992V10.6666H12Z" fill="url(#paint0_linear_7_97)"/>
<defs>
<linearGradient id="paint0_linear_7_97" x1="16" y1="1.33325" x2="16" y2="29.3333" gradientUnits="userSpaceOnUse">
<stop stop-color="#FFBF00"/>
<stop offset="1" stop-color="#F29E0C"/>
</linearGradient>
</defs>
</svg>
