<svg width="18" height="10" viewBox="0 0 18 10" fill="none" xmlns="http://www.w3.org/2000/svg">
<path fill-rule="evenodd" clip-rule="evenodd" d="M10.1679 0.445284C10.4743 -0.0142447 11.0952 -0.138418 11.5547 0.167934L17.5547 4.16793C17.8329 4.3534 18 4.66563 18 4.99998C18 5.33434 17.8329 5.64657 17.5547 5.83203L11.5547 9.83203C11.0952 10.1384 10.4743 10.0142 10.1679 9.55468C9.8616 9.09516 9.98577 8.47429 10.4453 8.16793L13.6972 5.99998H1C0.447715 5.99998 0 5.55227 0 4.99998C0 4.4477 0.447715 3.99998 1 3.99998H13.6972L10.4453 1.83203C9.98577 1.52568 9.8616 0.904813 10.1679 0.445284Z" fill="#332200"/>
</svg>
