<svg width="32" height="32" viewBox="0 0 32 32" fill="none" xmlns="http://www.w3.org/2000/svg">
<path d="M8.06667 10.7332C6.32105 12.4791 5.33818 14.8455 5.33318 17.3144C5.32818 19.7833 6.30146 22.1536 8.04 23.9065C10 19.3732 13.4933 15.5865 17.8533 13.3332C14.0901 16.5174 11.5498 20.91 10.6667 25.7599C14.1333 27.3999 18.4 26.7999 21.2667 23.9332C25.2533 19.9465 26.3733 9.07988 26.6133 6.09321C26.6217 5.99831 26.6092 5.90273 26.5766 5.8132C26.544 5.72367 26.4922 5.64236 26.4249 5.575C26.3575 5.50764 26.2762 5.45585 26.1867 5.42329C26.0972 5.39073 26.0016 5.37819 25.9067 5.38655C22.92 5.62655 12.0533 6.74655 8.06667 10.7332V10.7332Z" fill="url(#paint0_linear_7_102)"/>
<defs>
<linearGradient id="paint0_linear_7_102" x1="15.9745" y1="5.38403" x2="15.9745" y2="26.6591" gradientUnits="userSpaceOnUse">
<stop stop-color="#FFBF00"/>
<stop offset="1" stop-color="#F29E0C"/>
</linearGradient>
</defs>
</svg>
